<?xml version="1.0" encoding="UTF-8"?>
<svg width="1014px" height="786px" viewBox="0 0 1014 786" version="1.1" xmlns="http://www.w3.org/2000/svg" xmlns:xlink="http://www.w3.org/1999/xlink">
    <title>FinalLogo-Vector-1</title>
    <defs>
        <path d="M75.042,23.914 C74.011,24.217 72.968,24.519 71.939,24.836 L71.848,24.988 L5.236,130.985 C3.875,133.165 2.103,135.071 0,136.661 C0.861,136.1 1.74,135.571 2.618,135.04 C11.744,129.517 21.522,124.235 31.875,119.27 C62.404,104.588 97.975,92.555 137.039,84.245 C160.303,79.296 184.809,75.663 210.222,73.546 L210.222,1.13686838e-13 C162.376,3.511 116.894,11.715 75.042,23.914" id="path-1"></path>
        <linearGradient x1="-33.6962473%" y1="85.0092207%" x2="49.9916595%" y2="49.9786442%" id="linearGradient-3">
            <stop stop-color="#231F20" offset="0%"></stop>
            <stop stop-color="#FF0000" offset="100%"></stop>
        </linearGradient>
        <path d="M-1.13686838e-13,73.53 C39.654,76.86 77.07,83.839 111.02,93.751 C135.405,100.864 157.987,109.478 178.346,119.271 C188.698,124.236 198.475,129.517 207.603,135.041 C208.48,135.572 209.358,136.102 210.221,136.662 C208.117,135.072 206.346,133.166 204.984,130.986 L138.356,24.974 L138.28,24.837 C123.069,20.298 107.327,16.302 91.178,12.866 C62.057,6.66 31.543,2.316 -1.13686838e-13,0 L-1.13686838e-13,73.53 Z" id="path-4"></path>
        <linearGradient x1="125.406507%" y1="94.2381423%" x2="47.0105814%" y2="48.2065398%" id="linearGradient-6">
            <stop stop-color="#231F20" offset="0%"></stop>
            <stop stop-color="#FF0000" offset="100%"></stop>
        </linearGradient>
    </defs>
    <g id="Page-1" stroke="none" stroke-width="1" fill="none" fill-rule="evenodd">
        <g id="FinalLogo-Vector-1" transform="translate(0.679000, 0.800500)">
            <g id="Group" transform="translate(0.000000, 680.883500)" fill="#FFFFFF" fill-rule="nonzero">
                <path d="M91.925,89.962 C92.359,91.269 92.578,92.468 92.578,93.554 C92.578,96.386 91.538,98.699 89.456,100.493 C87.374,102.29 84.962,103.186 82.226,103.186 C77.842,103.186 74.886,101.026 73.353,96.7 L67.003,79.186 L25.489,79.186 L19.075,96.645 C17.55,101.008 14.565,103.186 10.11,103.186 C7.5,103.186 5.164,102.29 3.1,100.493 C1.032,98.698 0,96.438 0,93.718 C0,92.521 0.217,91.269 0.654,89.962 L28.902,10.939 C31.623,3.646 37.447,0 46.373,0 C55.404,0 61.283,3.691 64.004,11.082 L91.925,89.962 Z M60.187,59.921 L46.103,20.554 L32.205,59.921 L60.187,59.921 Z" id="Shape"></path>
                <path d="M287.489,87.837 C288.684,89.689 289.282,91.538 289.282,93.388 C289.282,96.113 288.216,98.427 286.09,100.329 C283.96,102.233 281.587,103.187 278.969,103.187 C275.692,103.187 273.019,101.674 270.948,98.649 L243.194,56.368 C238.665,62.446 231.604,71.507 222.013,83.554 L222.013,93.29 C222.013,96.478 221.023,98.927 219.049,100.63 C217.074,102.335 214.768,103.187 212.135,103.187 C209.39,103.187 207.14,102.371 205.385,100.734 C203.297,98.992 202.258,96.539 202.258,93.377 L202.258,10.953 C202.258,7.902 203.297,5.449 205.385,3.596 C207.14,1.961 209.39,1.143 212.135,1.143 C214.768,1.143 217.074,2.016 219.049,3.756 C221.023,5.498 222.013,7.893 222.013,10.94 L222.013,52.085 L257.934,5.062 C260,2.451 262.506,1.143 265.444,1.143 C268.165,1.143 270.559,2.142 272.628,4.136 C274.695,6.13 275.731,8.425 275.731,11.015 C275.731,13.064 274.978,15.058 273.47,16.999 L255.997,39.872 L287.489,87.837 Z" id="Path"></path>
                <path d="M486.476,10.939 L486.476,61.716 C486.476,74.997 482.476,85.282 474.476,92.575 C466.476,99.868 455.724,103.513 442.23,103.513 C428.623,103.513 417.846,99.868 409.902,92.575 C401.955,85.282 397.982,74.997 397.982,61.716 L397.982,10.939 C397.982,7.892 398.941,5.498 400.863,3.755 C402.785,2.015 405.115,1.142 407.861,1.142 C410.495,1.142 412.799,2.015 414.775,3.755 C416.748,5.497 417.738,7.892 417.738,10.939 L417.738,61.716 C417.738,76.521 425.902,83.921 442.23,83.921 C458.557,83.921 466.72,76.521 466.72,61.716 L466.72,10.939 C466.72,7.892 467.679,5.498 469.601,3.755 C471.521,2.015 473.853,1.142 476.598,1.142 C479.232,1.142 481.538,2.015 483.513,3.755 C485.488,5.498 486.476,7.892 486.476,10.939" id="Path"></path>
                <path d="M617.872,93.377 C617.872,96.539 616.909,98.967 614.987,100.654 C613.067,102.343 610.735,103.187 607.995,103.187 C605.358,103.187 603.054,102.343 601.077,100.654 C599.102,98.966 598.116,96.539 598.116,93.377 L598.116,10.953 C598.116,7.902 599.102,5.504 601.077,3.76 C603.054,2.016 605.358,1.143 607.995,1.143 C610.735,1.143 613.067,2.016 614.987,3.76 C616.909,5.504 617.872,7.903 617.872,10.953 L617.872,93.377 Z" id="Path"></path>
                <path d="M805.759,20.734 L783.066,20.734 L783.066,93.371 C783.066,96.535 782.076,98.963 780.101,100.652 C778.126,102.343 775.82,103.187 773.187,103.187 C770.443,103.187 768.111,102.343 766.191,100.652 C764.267,98.963 763.308,96.535 763.308,93.371 L763.308,20.734 L737.628,20.734 C734.595,20.734 732.214,19.783 730.478,17.877 C728.742,15.975 727.876,13.66 727.876,10.939 C727.876,8.326 728.749,6.041 730.489,4.08 C732.229,2.121 734.626,1.142 737.673,1.142 L805.759,1.142 C808.913,1.142 811.337,2.121 813.025,4.08 C814.713,6.041 815.556,8.326 815.556,10.939 C815.556,13.66 814.712,15.974 813.025,17.877 C811.337,19.783 808.913,20.734 805.759,20.734" id="Path"></path>
                <path d="M1010.79,16.654 L977.647,64.334 L977.647,93.352 C977.647,96.522 976.657,98.954 974.682,100.647 C972.707,102.342 970.399,103.188 967.768,103.188 C965.133,103.188 962.827,102.344 960.852,100.653 C958.877,98.964 957.891,96.538 957.891,93.374 L957.891,65.401 L924.582,16.491 C923.383,14.641 922.787,12.792 922.787,10.94 C922.787,8.219 923.814,5.905 925.875,4.001 C927.936,2.097 930.268,1.144 932.867,1.144 C936.119,1.144 938.722,2.63 940.674,5.601 L967.293,44.619 L994.584,5.361 C996.656,2.55 999.275,1.144 1002.439,1.144 C1005.058,1.144 1007.402,2.097 1009.476,4.001 C1011.546,5.905 1012.585,8.22 1012.585,10.94 C1012.587,12.898 1011.987,14.804 1010.79,16.654" id="Path"></path>
            </g>
            <g id="Group" transform="translate(180.091443, 0.000000)">
                <path d="M652.405557,503.7675 C652.405557,504.3595 652.376557,504.9495 652.329557,505.5385 C652.300557,505.7965 652.268557,506.0545 652.238557,506.3095 C652.193557,506.7195 652.118557,507.1275 652.043557,507.5365 C652.043557,507.5815 652.026557,507.6285 652.012557,507.6885 C652.012557,507.7025 652.012557,507.7175 651.997557,507.7335 L651.997557,507.7625 C651.922557,508.1575 651.831557,508.5655 651.710557,508.9595 C651.710557,508.9885 651.694557,509.0045 651.679557,509.0335 C651.679557,509.0805 651.679557,509.1095 651.649557,509.1545 C651.558557,509.5045 651.453557,509.8515 651.316557,510.1995 C651.271557,510.3045 651.240557,510.4105 651.195557,510.5175 C651.013557,510.9865 650.817557,511.4705 650.590557,511.9395 C650.394557,512.3785 650.166557,512.8025 649.925557,513.2425 C649.682557,513.6805 649.426557,514.1035 649.137557,514.5275 C648.910557,514.8905 648.653557,515.2405 648.381557,515.5885 C648.289557,515.7255 648.198557,515.8465 648.076557,515.9815 C647.820557,516.3155 647.531557,516.6475 647.246557,516.9815 L625.236557,541.5325 C617.730557,549.9175 604.441557,551.5655 594.769557,545.3005 C593.013557,544.1655 591.212557,543.0305 589.396557,541.9255 C587.292557,540.3355 585.521557,538.4295 584.159557,536.2495 L517.531557,430.2375 L517.455557,430.1005 L466.539557,349.0795 L345.784557,156.9175 C337.081557,143.0675 315.315557,143.0675 306.614557,156.9175 L185.859557,349.0815 L134.942557,430.1025 L134.851557,430.2545 L68.2395572,536.2505 C66.8785572,538.4305 65.1065572,540.3365 63.0035572,541.9265 C61.1865572,543.0315 59.3855572,544.1665 57.6305572,545.3015 C47.9585572,551.5675 34.6695572,549.9185 27.1615572,541.5335 L5.15355722,516.9825 C4.45855722,516.1955 3.82155722,515.3775 3.26055722,514.5295 C3.12555722,514.3345 2.98955722,514.1215 2.86755722,513.9105 C2.06455722,512.5925 1.42855722,511.2155 0.959557224,509.8085 C0.854557224,509.5055 0.763557224,509.1875 0.688557224,508.8845 C0.612557224,508.6425 0.551557224,508.4005 0.507557224,508.1575 C0.475557224,508.0525 0.444557224,507.9445 0.430557224,507.8235 C0.414557224,507.7945 0.399557224,507.7625 0.399557224,507.7335 C0.370557224,507.5965 0.340557224,507.4605 0.325557224,507.3255 C0.294557224,507.1575 0.263557224,506.9915 0.233557224,506.8255 C0.204557224,506.6435 0.173557224,506.4775 0.159557224,506.3095 C0.114557224,506.0535 0.0835572244,505.7955 0.0675572244,505.5385 C-0.00844277559,504.5405 -0.0234427756,503.5405 0.0385572244,502.5425 C0.264557224,499.4235 1.24955722,496.3215 3.01855722,493.5055 L3.86655722,492.1445 L5.42755722,489.6625 L116.809557,312.4375 L306.614557,10.3875 C315.315557,-3.4625 337.081557,-3.4625 345.784557,10.3875 L535.588557,312.4375 L646.972557,489.6625 L648.531557,492.1445 L649.380557,493.5055 C651.151557,496.3215 652.135557,499.4235 652.361557,502.5425 C652.389557,502.9515 652.405557,503.3595 652.405557,503.7675" id="Path" fill="#FF0000" fill-rule="nonzero"></path>
                <g id="Clipped" transform="translate(63.003557, 405.265500)">
                    <mask id="mask-2" fill="white">
                        <use xlink:href="#path-1"></use>
                    </mask>
                    <g id="SVGID_1_"></g>
                    <polygon id="Path" fill="url(#linearGradient-3)" fill-rule="nonzero" mask="url(#mask-2)" points="-50.805 22.633 175.402 -78.151 261.025 114.026 34.818 214.811"></polygon>
                </g>
                <g id="Clipped" transform="translate(379.174557, 405.265500)">
                    <mask id="mask-5" fill="white">
                        <use xlink:href="#path-4"></use>
                    </mask>
                    <g id="SVGID_4_"></g>
                    <polygon id="Path" fill="url(#linearGradient-6)" fill-rule="nonzero" mask="url(#mask-5)" points="154.209 229.598 -60.419 100.248 56.012 -92.94 270.639 36.411"></polygon>
                </g>
                <path d="M326.202557,359.3855 L293.152557,359.3855 C282.278557,359.3855 275.484557,347.6145 280.921557,338.1985 L297.445557,309.5755 L313.971557,280.9545 C319.407557,271.5385 332.997557,271.5385 338.434557,280.9545 L354.959557,309.5755 L371.483557,338.1985 C376.921557,347.6145 370.125557,359.3855 359.252557,359.3855 L326.202557,359.3855 Z" id="Path" fill="#FF0000" fill-rule="nonzero"></path>
            </g>
        </g>
    </g>
</svg>